<svg xmlns="http://www.w3.org/2000/svg" viewBox="0 0 19 19">
  <g>
    <path d="M4.534 6.3h-3.6a.45.45 0 00-.45.45v11.7c0 .249.202.45.45.45h3.6a.45.45 0 00.45-.45V6.75a.45.45 0 00-.45-.45zM2.716 4.5a2.241 2.241 0 002.232-2.25C4.948 1.007 3.95 0 2.716 0A2.241 2.241 0 00.484 2.25c0 1.243 1 2.25 2.232 2.25zM15.335 18.9h2.7a.45.45 0 00.45-.45v-7.56c0-3.393-1.917-5.04-4.599-5.04a3.789 3.789 0 00-2.853 1.143.369.369 0 01-.648-.243.45.45 0 00-.45-.45h-2.7a.45.45 0 00-.45.45v11.7a.45.45 0 00.45.45h2.7a.45.45 0 00.45-.45V11.7a2.25 2.25 0 114.5 0v6.75a.45.45 0 00.45.45z" />
  </g>
</svg>
