<?xml version="1.0" standalone="no"?>
<!DOCTYPE svg PUBLIC "-//W3C//DTD SVG 20010904//EN"
 "http://www.w3.org/TR/2001/REC-SVG-20010904/DTD/svg10.dtd">
<svg version="1.0" xmlns="http://www.w3.org/2000/svg"
 width="700.000000pt" height="700.000000pt" viewBox="0 0 700.000000 700.000000"
 preserveAspectRatio="xMidYMid meet">
<metadata>
Created by potrace 1.14, written by Peter Selinger 2001-2017
</metadata>
<g transform="translate(0.000000,700.000000) scale(0.100000,-0.100000)"
fill="#000000" stroke="none">
<path d="M3340 6990 c-109 -14 -146 -20 -178 -29 -18 -5 -35 -10 -37 -10 -59
2 -384 -123 -475 -182 -14 -8 -56 -36 -95 -61 -336 -216 -612 -580 -755 -993
-88 -256 -98 -344 -99 -885 -2 -456 -5 -591 -15 -665 -3 -22 -8 -60 -11 -85
-15 -118 -66 -324 -117 -470 -74 -209 -165 -399 -354 -730 -29 -51 -278 -496
-301 -540 -14 -25 -50 -90 -80 -144 -41 -73 -56 -109 -56 -138 0 -44 26 -86
64 -105 19 -10 590 -13 2669 -13 2634 0 2645 0 2678 20 39 24 62 71 55 114 -3
16 -48 122 -100 235 -52 113 -109 235 -125 271 -27 57 -54 115 -163 355 -15
33 -62 132 -105 220 -188 386 -265 627 -315 990 -6 40 -12 411 -17 947 l-3
277 217 219 c237 240 247 256 233 347 -5 35 -16 58 -43 87 -37 39 -96 61 -297
113 -27 7 -147 41 -267 75 l-216 62 -33 47 c-55 77 -268 282 -369 353 -216
153 -484 260 -761 304 -111 18 -433 26 -529 14z m355 -805 c138 -16 257 -51
390 -115 327 -159 562 -486 632 -880 16 -89 7 -478 -12 -550 -2 -8 -7 -35 -10
-60 -4 -25 -11 -65 -17 -90 -5 -25 -12 -56 -14 -70 -14 -70 -92 -280 -149
-395 -51 -106 -178 -314 -204 -335 -3 -3 -19 -23 -36 -45 -43 -59 -229 -242
-315 -311 -223 -179 -452 -307 -785 -439 -11 -4 -24 -9 -30 -11 -5 -2 -50 -17
-100 -34 -88 -31 -322 -94 -387 -105 -18 -3 -40 -8 -48 -10 -8 -2 -31 -6 -50
-9 -19 -3 -46 -8 -60 -11 -70 -14 -161 -20 -314 -20 l-168 0 -35 40 c-31 36
-34 45 -30 85 3 29 34 106 85 211 135 279 185 409 235 614 33 133 46 204 62
345 3 30 8 73 11 95 3 22 6 258 8 525 3 292 9 510 15 547 6 35 13 73 15 85 20
110 109 314 194 442 61 92 228 259 317 317 166 109 346 171 535 186 41 3 76 6
77 7 4 4 136 -3 188 -9z"/>
<path d="M1933 1110 c-40 -24 -54 -70 -39 -120 21 -66 96 -195 175 -300 193
-257 439 -438 776 -573 82 -33 242 -74 405 -102 58 -11 391 -13 455 -4 33 5
74 11 90 13 148 22 364 88 503 153 341 162 618 426 777 741 24 48 42 96 40
107 -2 11 -4 26 -4 33 -1 8 -15 27 -32 43 l-31 29 -302 0 c-347 0 -332 3 -413
-95 -104 -125 -203 -204 -348 -275 -458 -226 -1017 -106 -1328 285 -70 88 -57
85 -395 85 -277 0 -299 -1 -329 -20z"/>
</g>
</svg>
