<svg xmlns="http://www.w3.org/2000/svg" viewBox="0 0 24 19">
  <path d="M20.694 4.563c.014.199.014.398.014.599 0 6.115-4.758 13.168-13.458 13.168v-.004A13.607 13.607 0 010 16.251a9.632 9.632 0 007-1.918c-2.024-.038-3.799-1.329-4.419-3.214.71.134 1.44.107 2.136-.08C2.51 10.604.923 8.707.923 6.504v-.058a4.78 4.78 0 002.146.579C.991 5.664.35 2.959 1.605.844c2.402 2.892 5.945 4.65 9.748 4.835a4.568 4.568 0 011.369-4.421c1.905-1.753 4.9-1.663 6.691.2A9.619 9.619 0 0022.417.335a4.665 4.665 0 01-2.08 2.56 9.568 9.568 0 002.717-.73 9.496 9.496 0 01-2.36 2.398z" />
</svg>
