<svg width="600" height="120" viewBox="0 0 600 120" fill="none" xmlns="http://www.w3.org/2000/svg">
<path fill-rule="evenodd" clip-rule="evenodd" d="M2.06129 87.3598C1.7021 87.3685 1.34718 87.278 1.03335 87.0977C0.719514 86.9173 0.458195 86.6537 0.276495 86.3342C0.0947946 86.0147 -0.000669695 85.6508 3.5363e-06 85.2804C0.000676767 84.9101 0.097463 84.5466 0.280324 84.2278L3.52797 78.2278C3.52797 78.2278 3.52797 78.3358 8.44017 69.1678C12.1651 62.6638 15.6572 54.4678 15.6572 44.8679V31.9199C15.6572 18.6599 26.1334 0 46.632 0C58.1326 0 66.4205 5.38798 71.5306 12.624C71.6773 12.6192 71.8223 12.6566 71.9496 12.732L83.1709 15.96C83.6685 16.099 84.1224 16.3692 84.488 16.744C84.8535 17.1189 85.118 17.5854 85.2555 18.0977C85.3929 18.61 85.3986 19.1503 85.2718 19.6656C85.1451 20.1808 84.8904 20.6531 84.5328 21.0359L77.6301 28.2359C77.7348 29.5319 77.8396 30.7079 77.8396 32.0039V44.8439C77.8396 53.7958 80.773 61.4518 84.009 67.6438L88.409 77.5678C88.409 77.5678 88.409 77.4598 91.4355 84.2518C91.586 84.5758 91.6538 84.934 91.6326 85.2926C91.6114 85.6512 91.5018 85.9983 91.3141 86.301C91.1265 86.6037 90.8671 86.8521 90.5604 87.0227C90.2537 87.1933 89.9098 87.2804 89.5614 87.2758L2.06129 87.3598ZM21.9429 74.3998H24.5503C30.2075 74.3998 66.4554 69.0118 66.4554 34.3919C66.4554 25.2239 59.867 13.896 46.5854 13.896C33.3038 13.896 26.7038 25.8959 26.7038 34.3919V42.6959C26.7038 48.8399 26.599 55.3198 23.8868 62.7598C22.8392 65.4478 21.2678 68.7598 20.1154 71.1598C19.9452 71.4912 19.8597 71.8619 19.8669 72.2368C19.8742 72.6117 19.9739 72.9786 20.1568 73.3027C20.3396 73.6269 20.5996 73.8977 20.9121 74.0897C21.2246 74.2816 21.5793 74.3883 21.9429 74.3998Z" fill="white"/>
<path fill-rule="evenodd" clip-rule="evenodd" d="M20.779 100.296C20.4704 100.287 20.1646 100.359 19.8896 100.503C19.6145 100.648 19.379 100.861 19.2043 101.123C19.0296 101.386 18.9213 101.689 18.8893 102.006C18.8574 102.322 18.9027 102.642 19.0213 102.936V103.056C20.4999 106.405 22.6179 109.413 25.2488 111.9C27.9815 114.497 31.1697 116.534 34.6426 117.9C41.7886 120.7 49.683 120.7 56.829 117.9C60.3039 116.531 63.4955 114.495 66.2343 111.9C68.8613 109.409 70.9786 106.402 72.4619 103.056V102.936C72.5837 102.642 72.6315 102.321 72.601 102.003C72.5704 101.686 72.4625 101.381 72.2871 101.117C72.1118 100.854 71.8748 100.641 71.598 100.497C71.3213 100.353 71.0139 100.284 70.7042 100.296H62.0206C61.6571 100.308 61.3015 100.407 60.9821 100.586C60.6627 100.766 60.3885 101.02 60.1814 101.328C59.5289 102.279 58.7797 103.156 57.9465 103.944C56.326 105.497 54.4338 106.719 52.3707 107.544C48.1347 109.207 43.4532 109.207 39.2172 107.544C37.1542 106.719 35.262 105.497 33.6415 103.944C32.8114 103.153 32.0625 102.276 31.4066 101.328C31.21 101.023 30.946 100.77 30.6365 100.591C30.3269 100.412 29.9805 100.31 29.6256 100.296H20.779Z" fill="white"/>
<path d="M572.436 11.7839H565.114C563.957 11.7839 563.019 12.751 563.019 13.9439V86.1957C563.019 87.3887 563.957 88.3557 565.114 88.3557H572.436C573.593 88.3557 574.531 87.3887 574.531 86.1957V13.9439C574.531 12.751 573.593 11.7839 572.436 11.7839Z" fill="white"/>
<path d="M210.05 88.3557H202.729C202.175 88.3557 201.644 88.1298 201.251 87.7273C200.858 87.3248 200.636 86.7785 200.633 86.2077V30.4559C200.632 30.333 200.59 30.2143 200.514 30.1194C200.438 30.0245 200.333 29.959 200.217 29.9338C200.1 29.9086 199.979 29.9253 199.872 29.9809C199.766 30.0365 199.681 30.1279 199.632 30.2399L184.593 65.6878C184.429 66.0717 184.16 66.3979 183.819 66.6261C183.478 66.8542 183.079 66.9744 182.672 66.9718H173.965C173.558 66.976 173.159 66.8564 172.817 66.6281C172.476 66.3997 172.207 66.0727 172.045 65.6878L156.703 29.9999C156.654 29.8879 156.569 29.7965 156.463 29.7409C156.356 29.6853 156.235 29.6686 156.118 29.6938C156.001 29.719 155.897 29.7845 155.821 29.8794C155.745 29.9743 155.703 30.093 155.702 30.2159V86.2077C155.699 86.7785 155.477 87.3248 155.084 87.7273C154.691 88.1298 154.16 88.3557 153.606 88.3557H146.285C145.731 88.3557 145.2 88.1298 144.807 87.7273C144.415 87.3248 144.193 86.7785 144.189 86.2077V13.9439C144.193 13.372 144.414 12.8245 144.807 12.4201C145.199 12.0157 145.73 11.7871 146.285 11.7839H160.113C160.521 11.7839 160.92 11.9065 161.261 12.1367C161.602 12.3669 161.871 12.6947 162.034 13.0799L177.807 50.0758C177.847 50.174 177.914 50.2578 178 50.3167C178.086 50.3756 178.186 50.407 178.29 50.407C178.393 50.407 178.494 50.3756 178.58 50.3167C178.666 50.2578 178.733 50.174 178.773 50.0758L194.219 13.0919C194.384 12.7044 194.654 12.3745 194.997 12.1423C195.34 11.9101 195.741 11.7856 196.152 11.7839H210.05C210.325 11.7839 210.598 11.8398 210.852 11.9484C211.106 12.0569 211.337 12.216 211.532 12.4166C211.726 12.6172 211.881 12.8553 211.986 13.1173C212.091 13.3794 212.146 13.6603 212.146 13.9439V86.2077C212.146 86.4908 212.091 86.7711 211.986 87.0325C211.88 87.2939 211.726 87.5312 211.531 87.7309C211.336 87.9305 211.105 88.0884 210.851 88.1957C210.597 88.3029 210.325 88.3573 210.05 88.3557V88.3557Z" fill="white"/>
<path d="M597.905 11.7839H590.583C589.426 11.7839 588.488 12.751 588.488 13.9439V86.1957C588.488 87.3887 589.426 88.3557 590.583 88.3557H597.905C599.062 88.3557 600 87.3887 600 86.1957V13.9439C600 12.751 599.062 11.7839 597.905 11.7839Z" fill="white"/>
<path d="M489.324 60.0598C488.624 57.917 487.525 55.9359 486.088 54.2278C484.552 52.451 482.703 50.9893 480.641 49.9198C480.092 49.6363 479.524 49.3956 478.941 49.1998C477.967 48.7917 476.968 48.451 475.95 48.1798C474.862 47.9997 473.767 47.8795 472.667 47.8198C472.599 47.8198 472.534 47.792 472.486 47.7425C472.438 47.693 472.411 47.6258 472.411 47.5558C472.409 47.5201 472.415 47.4845 472.427 47.4511C472.439 47.4177 472.458 47.3871 472.482 47.3613C472.506 47.3355 472.534 47.315 472.566 47.301C472.598 47.287 472.632 47.2798 472.667 47.2798C473.548 47.1395 474.414 46.9104 475.251 46.5958C475.74 46.4038 476.229 46.1878 476.706 45.9598C477.141 45.7599 477.564 45.5355 477.975 45.2878C479.487 44.348 480.859 43.188 482.049 41.8438C483.286 40.4971 484.266 38.9215 484.936 37.1998C485.665 35.3116 486.022 33.292 485.983 31.2599C485.983 24.8879 483.655 20.1359 479.174 16.7879C474.692 13.4399 468.593 11.8319 460.84 11.8319H444.905C444.364 11.8412 443.849 12.0667 443.466 12.4607C443.084 12.8548 442.865 13.3867 442.856 13.9439H442.542V86.1957C442.542 86.7676 442.761 87.3165 443.151 87.7231C443.541 88.1298 444.071 88.3614 444.626 88.3677H464.752C468.149 88.4092 471.533 87.9361 474.797 86.9637C477.736 86.1204 480.498 84.725 482.945 82.8477C485.282 81.1236 487.159 78.8208 488.405 76.1517C489.789 73.2298 490.468 70.0064 490.383 66.7558C490.406 64.4776 490.048 62.2125 489.324 60.0598V60.0598ZM454.345 24.5279C454.348 23.956 454.57 23.4084 454.962 23.004C455.355 22.5996 455.886 22.371 456.44 22.3679H460.41C463.656 22.2156 466.87 23.0817 469.629 24.8519C471.957 26.4839 473.121 29.0639 473.121 32.5199C473.189 33.9813 472.953 35.4409 472.429 36.8007C471.905 38.1605 471.105 39.389 470.083 40.4038C468.081 42.3598 465.054 43.3198 461.073 43.3198H456.417C455.863 43.3198 455.332 43.0939 454.94 42.6914C454.547 42.2889 454.325 41.7426 454.322 41.1718L454.345 24.5279ZM474.343 74.6397C472.155 76.7997 468.907 77.8797 464.507 77.8797H456.545C455.99 77.8766 455.459 77.648 455.067 77.2436C454.675 76.8392 454.453 76.2916 454.45 75.7197V55.9558C454.453 55.3839 454.675 54.8363 455.067 54.4319C455.459 54.0275 455.99 53.7989 456.545 53.7958H463.46C468.057 53.7958 471.526 54.8758 473.936 57.0478C475.133 58.1336 476.076 59.4846 476.695 60.9995C477.314 62.5145 477.592 64.1542 477.509 65.7958C477.588 67.4139 477.348 69.0317 476.804 70.5517C476.26 72.0717 475.423 73.4623 474.343 74.6397V74.6397Z" fill="white"/>
<path d="M405.793 33.7919C408.968 33.7321 412.126 34.2814 415.106 35.4119C417.578 36.3743 419.876 37.7575 421.904 39.5039C423.679 41.0453 425.166 42.9078 426.292 44.9999C427.075 46.4006 427.708 47.8854 428.178 49.4279C428.221 49.5933 428.226 49.7667 428.193 49.9347C428.161 50.1026 428.091 50.2606 427.99 50.3963C427.889 50.532 427.758 50.6419 427.609 50.7175C427.46 50.793 427.296 50.8321 427.13 50.8319H417.923C417.534 50.8205 417.155 50.7036 416.824 50.4929C416.492 50.2822 416.221 49.9852 416.037 49.6319C414.953 47.6525 413.336 46.0395 411.381 44.9879C408.84 43.7954 406.014 43.4051 403.259 43.8664C400.504 44.3277 397.943 45.6199 395.899 47.5799C394.226 49.3251 392.91 51.3994 392.03 53.6794C391.151 55.9595 390.724 58.3986 390.777 60.8518C390.75 63.8465 391.455 66.8 392.826 69.4403C394.197 72.0805 396.191 74.3226 398.623 75.9598C400.821 77.3144 403.338 78.0201 405.898 77.9998C409.134 77.9998 411.649 77.2438 413.43 75.5998C414.778 74.4123 415.909 72.9859 416.77 71.3878C416.946 71.0596 417.204 70.7861 417.517 70.5961C417.831 70.4061 418.188 70.3065 418.551 70.3078H427.724C427.897 70.3077 428.068 70.3526 428.221 70.4383C428.373 70.524 428.502 70.6478 428.596 70.7983C428.69 70.9488 428.745 71.1212 428.758 71.2997C428.77 71.4782 428.739 71.6571 428.667 71.8198C428.014 73.6526 427.208 75.4233 426.257 77.1118C424.996 79.249 423.426 81.1752 421.601 82.8238C419.576 84.5506 417.276 85.9026 414.803 86.8198C411.874 87.852 408.795 88.3594 405.7 88.3198C402.122 88.3521 398.569 87.6969 395.224 86.3878C392.065 85.1784 389.206 83.2601 386.855 80.7718C384.44 78.3291 382.552 75.3892 381.314 72.1438C379.933 68.5818 379.256 64.7712 379.323 60.9358C379.289 57.3711 379.913 53.8321 381.163 50.5079C382.359 47.3165 384.132 44.3885 386.389 41.8799C388.701 39.3408 391.521 37.3508 394.654 36.0479C398.158 34.452 401.964 33.6813 405.793 33.7919V33.7919Z" fill="white"/>
<path d="M362.421 11.976H361.176C357.949 11.976 355.333 14.673 355.333 17.9999V18.0359C355.333 21.3629 357.949 24.0599 361.176 24.0599H362.421C365.649 24.0599 368.265 21.3629 368.265 18.0359V17.9999C368.265 14.673 365.649 11.976 362.421 11.976Z" fill="white"/>
<path d="M365.367 33.984H358.138C356.981 33.984 356.043 34.9511 356.043 36.144V86.3999C356.043 87.5928 356.981 88.5599 358.138 88.5599H365.367C366.524 88.5599 367.462 87.5928 367.462 86.3999V36.144C367.462 34.9511 366.524 33.984 365.367 33.984Z" fill="white"/>
<path d="M526.491 33.7919C530.324 33.683 534.128 34.5051 537.596 36.1919C540.571 37.6657 543.215 39.7622 545.36 42.3479C547.386 44.8674 548.916 47.7694 549.865 50.8919C550.868 53.9855 551.364 57.23 551.332 60.4918V61.8958C551.329 62.4677 551.107 63.0153 550.715 63.4197C550.322 63.8241 549.791 64.0527 549.236 64.0558H515.27C514.96 64.062 514.654 64.1368 514.374 64.2753C514.095 64.4138 513.847 64.6127 513.648 64.8585C513.45 65.1044 513.304 65.3914 513.223 65.7001C513.141 66.0088 513.125 66.332 513.175 66.6478C513.378 67.724 513.694 68.7742 514.118 69.7798C514.911 71.5682 516.011 73.1943 517.365 74.5798C518.739 75.938 520.335 77.0349 522.08 77.8198C523.859 78.651 525.796 79.061 527.748 79.0198C530.001 79.0687 532.23 78.5497 534.244 77.5078C535.778 76.6364 537.131 75.4621 538.225 74.0518C538.425 73.7888 538.679 73.5749 538.969 73.4255C539.258 73.2761 539.577 73.1949 539.901 73.1878H549.132C549.316 73.1885 549.497 73.2382 549.657 73.3321C549.817 73.426 549.951 73.5609 550.046 73.7238C550.141 73.8867 550.193 74.0721 550.198 74.262C550.203 74.4519 550.161 74.6399 550.074 74.8078C549.332 76.2032 548.512 77.5534 547.618 78.8518C546.277 80.7335 544.645 82.3754 542.788 83.7118C540.766 85.1675 538.54 86.2965 536.188 87.0598C533.481 87.9598 530.65 88.3976 527.807 88.3558C524.178 88.4069 520.577 87.7092 517.214 86.3038C514.086 84.9757 511.239 83.0314 508.833 80.5798C506.474 78.0636 504.623 75.0903 503.385 71.8318C502.064 68.2398 501.39 64.4294 501.395 60.5878C501.354 57.0921 501.922 53.6171 503.071 50.3279C504.201 47.1874 505.886 44.2904 508.041 41.7839C510.245 39.3177 512.921 37.3484 515.899 35.9999C519.229 34.4707 522.846 33.7168 526.491 33.7919V33.7919ZM526.491 42.7559C524.651 42.7051 522.823 43.0739 521.137 43.8359C519.625 44.5158 518.241 45.4665 517.051 46.6439C515.899 47.7849 514.974 49.1463 514.327 50.6519C514.02 51.3104 513.775 51.9974 513.594 52.7039C513.5 53.0206 513.48 53.356 513.536 53.6822C513.592 54.0085 513.723 54.3162 513.918 54.58C514.112 54.8438 514.365 55.0561 514.654 55.1994C514.944 55.3427 515.263 55.4127 515.584 55.4039H537.282C537.601 55.405 537.916 55.3299 538.201 55.1843C538.487 55.0388 538.737 54.8268 538.93 54.5651C539.123 54.3033 539.254 53.999 539.313 53.676C539.373 53.3531 539.359 53.0203 539.272 52.7039C538.728 50.7141 537.759 48.8752 536.436 47.322C535.112 45.7688 533.468 44.5407 531.625 43.7279C529.991 43.0646 528.247 42.7345 526.491 42.7559V42.7559Z" fill="white"/>
<path d="M265.795 35.9999V40.7999C265.798 40.9098 265.767 41.0179 265.707 41.1089C265.648 41.2 265.562 41.2696 265.462 41.3079C265.362 41.3462 265.253 41.3514 265.15 41.3227C265.047 41.294 264.955 41.2329 264.887 41.1479C264.352 40.5239 263.723 39.9479 263.165 39.2519C262.121 38.1775 260.947 37.2459 259.673 36.4799C258.25 35.634 256.734 34.9691 255.156 34.4999C253.334 33.9774 251.448 33.7268 249.557 33.7559C246.286 33.7359 243.046 34.4056 240.035 35.7239C237.084 37.0196 234.41 38.9036 232.167 41.2679C229.854 43.7158 228.041 46.617 226.835 49.7999C225.489 53.338 224.821 57.1116 224.868 60.9119C224.775 65.0187 225.496 69.102 226.987 72.9118C228.267 76.1236 230.15 79.0434 232.527 81.5038C234.712 83.757 237.323 85.5217 240.198 86.6878C242.898 87.8 245.777 88.3781 248.684 88.3918C252.278 88.5294 255.842 87.6628 258.997 85.8838C261.166 84.576 263.144 82.9602 264.876 81.0838C264.948 81.0081 265.041 80.9562 265.142 80.9346C265.243 80.9131 265.348 80.9227 265.444 80.9625C265.54 81.0022 265.622 81.0703 265.68 81.158C265.739 81.2458 265.771 81.3494 265.772 81.4558V86.2558C265.775 86.8266 265.997 87.3729 266.39 87.7754C266.782 88.1779 267.314 88.4038 267.867 88.4038H275.236C275.789 88.4038 276.321 88.1779 276.713 87.7754C277.106 87.3729 277.328 86.8266 277.331 86.2558V35.9999C277.328 35.4291 277.106 34.8828 276.713 34.4803C276.321 34.0779 275.789 33.8519 275.236 33.8519H267.914C267.638 33.8488 267.364 33.9019 267.108 34.0083C266.851 34.1147 266.618 34.2722 266.421 34.4718C266.224 34.6714 266.068 34.9092 265.96 35.1715C265.853 35.4337 265.797 35.7153 265.795 35.9999V35.9999ZM265.795 66.5998C265.654 67.1022 265.483 67.5952 265.283 68.0758C264.519 70.0119 263.414 71.7857 262.024 73.3078C260.703 74.7473 259.121 75.9053 257.368 76.7158C255.247 77.5807 252.977 77.9891 250.698 77.9158C248.766 77.8345 246.87 77.353 245.122 76.4998C243.312 75.5883 241.721 74.2724 240.466 72.6478C239.198 71.0375 238.249 69.1866 237.672 67.1998C237.09 65.1743 236.796 63.0724 236.799 60.9599C236.802 58.8778 237.12 56.8089 237.742 54.8279C238.333 52.8469 239.281 50.9986 240.536 49.3799C241.791 47.7553 243.382 46.4394 245.192 45.5279C247.304 44.4979 249.619 43.9885 251.955 44.0399C253.917 44.0225 255.86 44.4314 257.659 45.2399C259.431 46.038 261.019 47.2161 262.315 48.6959C263.684 50.287 264.739 52.1374 265.423 54.1439C265.581 54.572 265.717 55.0086 265.83 55.4519C266.331 57.3237 266.578 59.2581 266.564 61.1999C266.571 63.0097 266.312 64.8102 265.795 66.5398V66.5998Z" fill="white"/>
<path d="M329.852 35.9999V40.7999C329.851 40.9095 329.817 41.0161 329.756 41.1057C329.695 41.1952 329.609 41.2634 329.509 41.3011C329.409 41.3389 329.3 41.3445 329.197 41.3171C329.095 41.2897 329.002 41.2307 328.932 41.1479C328.409 40.5239 327.838 39.9479 327.21 39.2519C326.168 38.1748 324.994 37.2428 323.718 36.4799C322.299 35.634 320.787 34.9691 319.213 34.4999C317.391 33.9774 315.505 33.7268 313.614 33.7559C310.384 33.7348 307.183 34.386 304.202 35.6706C301.222 36.9552 298.524 38.8468 296.27 41.2319C293.957 43.6798 292.144 46.581 290.939 49.7639C289.587 53.3004 288.919 57.0751 288.971 60.8759C288.879 64.9827 289.599 69.066 291.09 72.8758C292.371 76.0876 294.254 79.0074 296.631 81.4678C298.813 83.718 301.42 85.4824 304.29 86.6518C306.994 87.7624 309.876 88.3404 312.787 88.3558C316.378 88.4954 319.938 87.6287 323.089 85.8478C325.261 84.5409 327.244 82.9251 328.979 81.0478C329.052 80.9721 329.144 80.9202 329.245 80.8986C329.346 80.8771 329.451 80.8867 329.547 80.9265C329.643 80.9662 329.725 81.0343 329.784 81.122C329.842 81.2098 329.874 81.3134 329.875 81.4198V89.0638C329.887 89.2916 329.887 89.5199 329.875 89.7478C329.669 93.6517 328.014 97.3243 325.254 100.005C322.493 102.686 318.838 104.169 315.046 104.148C311.121 104.252 307.265 103.08 304.022 100.8C303.113 100.138 302.38 99.2509 301.892 98.2197C301.743 97.807 301.476 97.45 301.128 97.1954C300.779 96.9407 300.364 96.8001 299.936 96.7918H291.183C291.036 96.7927 290.89 96.8253 290.756 96.8876C290.621 96.9498 290.501 97.0403 290.402 97.1532C290.303 97.2662 290.229 97.3991 290.183 97.5435C290.137 97.6879 290.121 97.8405 290.135 97.9918C290.303 100.21 290.938 102.365 291.998 104.304C292.248 104.779 292.524 105.24 292.824 105.684C297.248 112.284 306.362 116.112 314.999 116.112C321.743 116.128 328.235 113.473 333.135 108.697C338.035 103.92 340.968 97.386 341.329 90.4438C341.329 90.0118 341.329 89.5798 341.329 89.1478V35.9999C341.337 35.7139 341.289 35.4291 341.189 35.1623C341.088 34.8955 340.937 34.6521 340.744 34.4464C340.551 34.2407 340.32 34.0769 340.065 33.9645C339.81 33.8521 339.535 33.7934 339.257 33.7919H331.936C331.657 33.7918 331.381 33.8493 331.125 33.961C330.868 34.0727 330.636 34.2363 330.441 34.4421C330.247 34.648 330.095 34.8919 329.994 35.1595C329.892 35.4271 329.844 35.7128 329.852 35.9999ZM329.34 68.0758C328.56 69.9742 327.452 71.7105 326.069 73.1998C324.751 74.6455 323.169 75.8079 321.413 76.6198C319.67 77.4232 317.781 77.8324 315.872 77.8198C313.566 77.8708 311.28 77.3739 309.191 76.3678C307.36 75.4625 305.749 74.1463 304.476 72.5158C303.234 70.9446 302.301 69.139 301.729 67.1998C301.147 65.1742 300.853 63.0724 300.856 60.9599C300.855 58.8784 301.169 56.8095 301.787 54.8279C302.378 52.8469 303.326 50.9986 304.581 49.3799C305.854 47.7494 307.465 46.4333 309.295 45.5279C311.382 44.5094 313.668 44.0002 315.977 44.0399C317.938 44.0247 319.882 44.4335 321.681 45.2399C323.453 46.038 325.04 47.2161 326.337 48.6959C327.705 50.287 328.761 52.1374 329.445 54.1439C329.596 54.5759 329.736 55.0079 329.852 55.4519C330.34 57.2732 330.587 59.1543 330.585 61.0439V61.1999C330.601 62.9958 330.354 64.7838 329.852 66.5038C329.707 67.0167 329.536 67.5213 329.34 68.0158V68.0758Z" fill="white"/>
</svg>
